<?xml version="1.0" encoding="UTF-8"?><svg id="a" xmlns="http://www.w3.org/2000/svg" height="16" width="16" viewBox="0 0 16 16"><defs><style>.b{fill:#fff;}</style></defs><path class="b" d="M8,1.05c-.25,0-.45.2-.45.45v8.91l-1.23-1.23c-.18-.18-.46-.18-.64,0s-.18.46,0,.64l2,2s.02.01.03.02c.04.03.08.06.12.08.06.02.11.03.17.03s.12-.01.17-.03c.05-.02.08-.05.12-.08,0,0,.02,0,.03-.02l2-2c.18-.18.18-.46,0-.64s-.46-.18-.64,0l-1.23,1.23V1.5c0-.25-.2-.45-.45-.45Z"/><path class="b" d="M13.5,6.05h-3c-.25,0-.45.2-.45.45s.2.45.45.45h3c.3,0,.55.25.55.55v6c0,.3-.25.55-.55.55H2.5c-.3,0-.55-.25-.55-.55v-6c0-.3.25-.55.55-.55h3c.25,0,.45-.2.45-.45s-.2-.45-.45-.45h-3c-.8,0-1.45.65-1.45,1.45v6c0,.8.65,1.45,1.45,1.45h11c.8,0,1.45-.65,1.45-1.45v-6c0-.8-.65-1.45-1.45-1.45Z"/></svg>
