<?xml version="1.0" encoding="UTF-8"?><svg id="a" xmlns="http://www.w3.org/2000/svg" height="16" width="16" viewBox="0 0 16 16"><defs><style>.b{fill:#fff;}</style></defs><path class="b" d="M11.89,4.82h3.11c.25,0,.45-.2.45-.45V1.26c0-.25-.2-.45-.45-.45h-3.11c-.25,0-.45.2-.45.45v1.12s-.04-.01-.07-.01h-1.56s0,0,0,0c-.05,0-.09.01-.13.03-.01,0-.03,0-.04.01-.04.02-.07.04-.1.07-.01.01-.03.02-.04.03-.02.02-.03.05-.05.07-.02.03-.03.05-.05.08,0,0,0,0,0,.01l-.92,2.63-1.92-2.74s-.02-.02-.03-.03c-.02-.02-.04-.04-.07-.06-.02-.02-.04-.03-.07-.05-.03-.01-.05-.02-.08-.03-.03,0-.06-.02-.09-.02-.01,0-.02,0-.04,0h-1.56s-.05.01-.07.01v-1.12c0-.25-.2-.45-.45-.45H1c-.25,0-.45.2-.45.45v3.11c0,.25.2.45.45.45h3.11c.25,0,.45-.2.45-.45v-1.12s.04.01.07.01h1.32l2.15,3.08-.84,2.41-.71-1.01s-.02-.02-.03-.03c-.02-.02-.04-.04-.07-.06-.02-.02-.04-.03-.07-.05-.03-.01-.05-.02-.08-.03-.03,0-.06-.01-.09-.02-.01,0-.02,0-.04,0h-1.56s-.05.01-.07.01v-1.12c0-.25-.2-.45-.45-.45H1c-.25,0-.45.2-.45.45v3.11c0,.25.2.45.45.45h3.11c.25,0,.45-.2.45-.45v-1.12s.04.01.07.01h1.32l.94,1.35-1.03,2.94h-1.24s-.05.01-.07.01v-1.12c0-.25-.2-.45-.45-.45H1c-.25,0-.45.2-.45.45v3.11c0,.25.2.45.45.45h3.11c.25,0,.45-.2.45-.45v-1.12s.04.01.07.01h1.56c.09,0,.16-.03.23-.07.02,0,.03-.02.04-.03.06-.05.12-.11.14-.19,0,0,0,0,0,0l.92-2.63,1.92,2.74s.02.01.03.02c.03.04.07.07.11.09.02.01.03.02.05.03.06.03.12.05.19.05h1.56s.05-.01.07-.01v1.12c0,.25.2.45.45.45h3.11c.25,0,.45-.2.45-.45v-3.11c0-.25-.2-.45-.45-.45h-3.11c-.25,0-.45.2-.45.45v1.12s-.04-.01-.07-.01h-1.32l-2.15-3.08.84-2.41.71,1.01s.02.01.03.02c.03.04.07.07.11.09.02.01.03.02.05.03.06.03.12.05.19.05h1.56s.05-.01.07-.01v1.12c0,.25.2.45.45.45h3.11c.25,0,.45-.2.45-.45v-3.11c0-.25-.2-.45-.45-.45h-3.11c-.25,0-.45.2-.45.45v1.12s-.04-.01-.07-.01h-1.32l-.94-1.35,1.03-2.94h1.24s.05-.01.07-.01v1.12c0,.25.2.45.45.45ZM12.34,1.71h2.21v2.21h-2.21V1.71ZM3.66,3.92H1.45V1.71h2.21v2.21ZM3.66,9.11H1.45v-2.21h2.21v2.21ZM3.66,14.29H1.45v-2.21h2.21v2.21ZM12.34,12.08h2.21v2.21h-2.21v-2.21ZM12.34,6.89h2.21v2.21h-2.21v-2.21Z"/></svg>
