<svg width="80" height="80" viewBox="0 0 80 80" fill="none" xmlns="http://www.w3.org/2000/svg">
<g filter="url(#filter0_d_1482_209)">
<mask id="mask0_1482_209" style="mask-type:luminance" maskUnits="userSpaceOnUse" x="4" y="2" width="72" height="72">
<rect x="4" y="2" width="72" height="72" fill="white"/>
</mask>
<g mask="url(#mask0_1482_209)">
<rect width="108" height="108" transform="translate(-14 -16)" fill="white"/>
<path fill-rule="evenodd" clip-rule="evenodd" d="M25.8511 31H25.0182L25.0177 31.8328L25 61.8328L24.9995 62.6667H25.8333H43.3333V61H26.6672L26.6839 32.6667H36.6667V41.837V42.6703H37.5H46.6667V44.3333H48.3333V41.8333V41.4919L48.0937 41.2486L38.2453 31.2486L38.0004 31H37.6515H25.8511ZM38.3333 41.0036V33.7133L45.5133 41.0036H38.3333ZM50.8333 45.6548L51.4226 46.2441L56.4226 51.2441L55.2441 52.4226L51.6667 48.8452V59.3406H50V48.8452L46.4226 52.4226L45.2441 51.2441L50.2441 46.2441L50.8333 45.6548ZM46.6662 61H55V62.6667H46.6662V61ZM32.4552 55.7068L34.3839 52.8458H32.9293L31.7249 54.7705L30.5345 52.8458H28.9999L30.9526 55.7068L28.8359 58.844H30.3344L31.6709 56.7592L32.9834 58.844H34.5599L32.4552 55.7068ZM44.8487 54.624H43.6002C43.5762 54.3318 43.4682 54.1078 43.2741 53.9517C43.082 53.7957 42.8099 53.7216 42.4638 53.7216C42.1537 53.7216 41.9136 53.7796 41.7436 53.9017C41.5715 54.0257 41.4875 54.1938 41.4875 54.4139C41.4875 54.6119 41.5695 54.752 41.7335 54.838C41.8916 54.9281 42.2958 55.0501 42.94 55.2102C43.6222 55.3782 44.0924 55.5503 44.3565 55.7224C44.8387 56.0385 45.0808 56.4806 45.0808 57.0468C45.0808 57.6671 44.8387 58.1572 44.3505 58.5154C43.9223 58.8335 43.3401 58.9895 42.6079 58.9895C41.7936 58.9895 41.1593 58.8015 40.7092 58.4293C40.257 58.0592 40.0229 57.527 40.0069 56.8428H41.3094C41.3294 57.1749 41.4154 57.421 41.5695 57.585C41.8096 57.8431 42.1717 57.9692 42.6559 57.9692C42.984 57.9692 43.2441 57.9071 43.4362 57.7771C43.6522 57.629 43.7603 57.429 43.7603 57.1749C43.7603 56.9208 43.6082 56.7347 43.3061 56.6167C43.1401 56.5507 42.7439 56.4326 42.1237 56.2605C41.7335 56.1525 41.4314 56.0505 41.2134 55.9564C40.9933 55.8584 40.8172 55.7524 40.6872 55.6363C40.3811 55.3622 40.227 54.9841 40.227 54.5019C40.227 53.9277 40.4671 53.4715 40.9473 53.1354C41.3534 52.8453 41.8836 52.7013 42.5338 52.7013C43.106 52.7013 43.5842 52.8153 43.9704 53.0414C44.5246 53.3695 44.8167 53.8937 44.8487 54.624ZM39.405 58.8445V57.7361H36.4699V52.8463H35.1614V58.8445H39.405Z" fill="black"/>
<rect x="-14" y="-16" width="108" height="40" fill="#EB0000"/>
<path fill-rule="evenodd" clip-rule="evenodd" d="M33.9901 19.4615H37.4863L32.7816 14.6731H38.6207V19.4615H41.3802V14.6731H47.2197L42.5137 19.4615H46.0102L52 13.2405L46.0102 7H42.5137L47.2197 11.8079H41.3802V7H38.6207V11.8079H32.7816L37.4863 7H33.9901L28 13.2405L33.9901 19.4615Z" fill="white"/>
</g>
</g>
<defs>
<filter id="filter0_d_1482_209" x="0" y="0" width="80" height="80" filterUnits="userSpaceOnUse" color-interpolation-filters="sRGB">
<feFlood flood-opacity="0" result="BackgroundImageFix"/>
<feColorMatrix in="SourceAlpha" type="matrix" values="0 0 0 0 0 0 0 0 0 0 0 0 0 0 0 0 0 0 127 0" result="hardAlpha"/>
<feOffset dy="2"/>
<feGaussianBlur stdDeviation="2"/>
<feColorMatrix type="matrix" values="0 0 0 0 0 0 0 0 0 0 0 0 0 0 0 0 0 0 0.2 0"/>
<feBlend mode="normal" in2="BackgroundImageFix" result="effect1_dropShadow_1482_209"/>
<feBlend mode="normal" in="SourceGraphic" in2="effect1_dropShadow_1482_209" result="shape"/>
</filter>
</defs>
</svg>
